solid inlet
  facet normal 0.000000e+00 0.000000e+00 1.000000e+00
    outer loop
      vertex   3.100000e+00 2.400000e+00 2.103470e+00
      vertex   4.200000e+00 2.400000e+00 2.103470e+00
      vertex   3.100000e+00 2.700000e+00 2.103470e+00
    endloop
  endfacet
  facet normal -0.000000e+00 0.000000e+00 1.000000e+00
    outer loop
      vertex   3.100000e+00 2.700000e+00 2.103470e+00
      vertex   4.200000e+00 2.400000e+00 2.103470e+00
      vertex   4.200000e+00 2.700000e+00 2.103470e+00
    endloop
  endfacet
  facet normal 0.000000e+00 0.000000e+00 1.000000e+00
    outer loop
      vertex   6.000000e-01 2.400000e+00 2.103470e+00
      vertex   1.700000e+00 2.400000e+00 2.103470e+00
      vertex   6.000000e-01 2.700000e+00 2.103470e+00
    endloop
  endfacet
  facet normal -0.000000e+00 0.000000e+00 1.000000e+00
    outer loop
      vertex   6.000000e-01 2.700000e+00 2.103470e+00
      vertex   1.700000e+00 2.400000e+00 2.103470e+00
      vertex   1.700000e+00 2.700000e+00 2.103470e+00
    endloop
  endfacet
endsolid inlet
