solid outlet
  facet normal 0.000000e+00 0.000000e+00 1.000000e+00
    outer loop
      vertex   1.900000e+00 2.000000e-01 2.103470e+00
      vertex   3.000000e+00 2.000000e-01 2.103470e+00
      vertex   1.900000e+00 5.000000e-01 2.103470e+00
    endloop
  endfacet
  facet normal -0.000000e+00 0.000000e+00 1.000000e+00
    outer loop
      vertex   1.900000e+00 5.000000e-01 2.103470e+00
      vertex   3.000000e+00 2.000000e-01 2.103470e+00
      vertex   3.000000e+00 5.000000e-01 2.103470e+00
    endloop
  endfacet
endsolid outlet
